<svg width="18" height="16" viewBox="0 0 18 16" fill="none" xmlns="http://www.w3.org/2000/svg">
<path d="M13.2188 0.125C13.8809 0.125 14.502 0.250977 15.082 0.50293C15.6621 0.754883 16.1689 1.09766 16.6025 1.53125C17.0361 1.95898 17.376 2.46582 17.6221 3.05176C17.874 3.63184 18 4.25 18 4.90625C18 5.54492 17.877 6.15723 17.6309 6.74316C17.3906 7.3291 17.0479 7.84473 16.6025 8.29004L9 15.8838L1.39746 8.29004C0.952148 7.84473 0.606445 7.3291 0.360352 6.74316C0.120117 6.15723 0 5.54492 0 4.90625C0 4.25 0.123047 3.63184 0.369141 3.05176C0.621094 2.46582 0.963867 1.95898 1.39746 1.53125C1.83105 1.09766 2.33789 0.754883 2.91797 0.50293C3.49805 0.250977 4.11914 0.125 4.78125 0.125C5.26758 0.125 5.70117 0.180664 6.08203 0.291992C6.46289 0.40332 6.81445 0.558594 7.13672 0.757812C7.46484 0.951172 7.77539 1.18555 8.06836 1.46094C8.36719 1.73633 8.67773 2.03809 9 2.36621C9.32227 2.03809 9.62988 1.73633 9.92285 1.46094C10.2217 1.18555 10.5322 0.951172 10.8545 0.757812C11.1826 0.558594 11.5371 0.40332 11.918 0.291992C12.2988 0.180664 12.7324 0.125 13.2188 0.125ZM15.8027 7.49023C16.1484 7.14453 16.4121 6.74902 16.5938 6.30371C16.7754 5.8584 16.8662 5.39258 16.8662 4.90625C16.8662 4.39648 16.7725 3.92188 16.585 3.48242C16.3975 3.03711 16.1367 2.65332 15.8027 2.33105C15.4746 2.00293 15.0879 1.74805 14.6426 1.56641C14.2031 1.37891 13.7285 1.28516 13.2188 1.28516C12.7266 1.28516 12.29 1.36426 11.9092 1.52246C11.5283 1.6748 11.1768 1.87695 10.8545 2.12891C10.5322 2.38086 10.2217 2.66797 9.92285 2.99023C9.62988 3.30664 9.32227 3.62891 9 3.95703C8.68359 3.64062 8.37598 3.32129 8.07715 2.99902C7.77832 2.67676 7.46484 2.38672 7.13672 2.12891C6.81445 1.87109 6.45996 1.66016 6.07324 1.49609C5.69238 1.33203 5.26172 1.25 4.78125 1.25C4.27734 1.25 3.80273 1.34668 3.35742 1.54004C2.91211 1.72754 2.52246 1.98828 2.18848 2.32227C1.86035 2.65039 1.59961 3.03711 1.40625 3.48242C1.21875 3.92773 1.125 4.40234 1.125 4.90625C1.125 5.39258 1.21582 5.8584 1.39746 6.30371C1.58496 6.74902 1.85156 7.14453 2.19727 7.49023L9 14.293L15.8027 7.49023Z" fill="#FF00A2"/>
</svg>
