<svg width="14" height="24" viewBox="0 0 14 24" fill="none" xmlns="http://www.w3.org/2000/svg">
<path d="M9.5 0C9.5 0.8125 9.67969 1.54297 10.0391 2.19141C10.3984 2.83203 10.8789 3.41016 11.4805 3.92578C12.2539 4.59766 12.8672 5.35156 13.3203 6.1875C13.7734 7.02344 14 7.96094 14 9H12.5C12.5 8.1875 12.3203 7.46094 11.9609 6.82031C11.6016 6.17188 11.1211 5.58984 10.5195 5.07422C10.332 4.91797 10.1523 4.75391 9.98047 4.58203C9.81641 4.41016 9.65625 4.23047 9.5 4.04297V20.625C9.5 20.6953 9.48828 20.7812 9.46484 20.8828C9.44141 20.9766 9.41406 21.0742 9.38281 21.1758C9.35156 21.2773 9.3125 21.375 9.26562 21.4688C9.22656 21.5625 9.19141 21.6406 9.16016 21.7031C8.96484 22.0781 8.71484 22.4102 8.41016 22.6992C8.10547 22.9883 7.76953 23.2305 7.40234 23.4258C7.03516 23.6133 6.64453 23.7578 6.23047 23.8594C5.81641 23.9531 5.40625 24 5 24C4.46875 24 3.93359 23.9141 3.39453 23.7422C2.86328 23.5703 2.38281 23.3242 1.95312 23.0039C1.52344 22.6836 1.17188 22.293 0.898438 21.832C0.632812 21.3633 0.5 20.8359 0.5 20.25C0.5 19.6641 0.632812 19.1406 0.898438 18.6797C1.17188 18.2109 1.52344 17.8164 1.95312 17.4961C2.38281 17.1758 2.86328 16.9297 3.39453 16.7578C3.93359 16.5859 4.46875 16.5 5 16.5C5.53906 16.5 6.06641 16.582 6.58203 16.7461C7.09766 16.9023 7.57031 17.1445 8 17.4727V0H9.5ZM5 22.5C5.32031 22.5 5.65625 22.4531 6.00781 22.3594C6.35938 22.2656 6.68359 22.125 6.98047 21.9375C7.27734 21.75 7.51953 21.5156 7.70703 21.2344C7.90234 20.9531 8 20.625 8 20.25C8 19.875 7.90234 19.5469 7.70703 19.2656C7.51953 18.9844 7.27734 18.75 6.98047 18.5625C6.68359 18.375 6.35938 18.2344 6.00781 18.1406C5.65625 18.0469 5.32031 18 5 18C4.67969 18 4.34375 18.0469 3.99219 18.1406C3.64062 18.2344 3.31641 18.375 3.01953 18.5625C2.72266 18.75 2.47656 18.9844 2.28125 19.2656C2.09375 19.5469 2 19.875 2 20.25C2 20.625 2.09375 20.9531 2.28125 21.2344C2.47656 21.5156 2.72266 21.75 3.01953 21.9375C3.31641 22.125 3.64062 22.2656 3.99219 22.3594C4.34375 22.4531 4.67969 22.5 5 22.5Z" fill="#00D4FF"/>
</svg>
